<svg width="132" height="59" viewBox="0 0 132 59" fill="none" xmlns="http://www.w3.org/2000/svg">
<path d="M62.8004 26.6562H59.0675C58.9993 26.1733 58.8601 25.7443 58.6499 25.3693C58.4396 24.9886 58.1697 24.6648 57.8402 24.3977C57.5107 24.1307 57.13 23.9261 56.6982 23.7841C56.272 23.642 55.8089 23.571 55.3089 23.571C54.4055 23.571 53.6186 23.7955 52.9482 24.2443C52.2777 24.6875 51.7578 25.3352 51.3885 26.1875C51.0192 27.0341 50.8345 28.0625 50.8345 29.2727C50.8345 30.517 51.0192 31.5625 51.3885 32.4091C51.7635 33.2557 52.2862 33.8949 52.9567 34.3267C53.6271 34.7585 54.4027 34.9744 55.2834 34.9744C55.7777 34.9744 56.2351 34.9091 56.6555 34.7784C57.0817 34.6477 57.4595 34.4574 57.7891 34.2074C58.1186 33.9517 58.3913 33.642 58.6072 33.2784C58.8288 32.9148 58.9822 32.5 59.0675 32.0341L62.8004 32.0511C62.7038 32.8523 62.4624 33.625 62.076 34.3693C61.6953 35.108 61.1811 35.7699 60.5334 36.3551C59.8913 36.9347 59.1243 37.3949 58.2322 37.7358C57.3459 38.071 56.343 38.2386 55.2237 38.2386C53.6669 38.2386 52.2749 37.8864 51.0476 37.1818C49.826 36.4773 48.8601 35.4574 48.1499 34.1222C47.4453 32.7869 47.093 31.1705 47.093 29.2727C47.093 27.3693 47.451 25.75 48.1669 24.4148C48.8828 23.0795 49.8544 22.0625 51.0817 21.3636C52.3089 20.6591 53.6896 20.3068 55.2237 20.3068C56.2351 20.3068 57.1726 20.4489 58.0362 20.733C58.9055 21.017 59.6754 21.4318 60.3459 21.9773C61.0163 22.517 61.5618 23.179 61.9822 23.9631C62.4084 24.7472 62.6811 25.6449 62.8004 26.6562ZM73.7734 32.4261V24.9091H77.4041V38H73.9183V35.6222H73.782C73.4865 36.3892 72.995 37.0057 72.3075 37.4716C71.6257 37.9375 70.7933 38.1705 69.8104 38.1705C68.9354 38.1705 68.1655 37.9716 67.5007 37.5739C66.8359 37.1761 66.3161 36.6108 65.9411 35.8778C65.5717 35.1449 65.3842 34.267 65.3786 33.2443V24.9091H69.0092V32.5966C69.0149 33.3693 69.2223 33.9801 69.6314 34.429C70.0405 34.8778 70.5888 35.1023 71.2763 35.1023C71.7138 35.1023 72.1229 35.0028 72.5036 34.804C72.8842 34.5994 73.1911 34.2983 73.424 33.9006C73.6626 33.5028 73.7791 33.0114 73.7734 32.4261ZM80.3082 38V24.9091H83.8281V27.1932H83.9645C84.2031 26.3807 84.6037 25.767 85.1662 25.3523C85.7287 24.9318 86.3764 24.7216 87.1094 24.7216C87.2912 24.7216 87.4872 24.733 87.6974 24.7557C87.9077 24.7784 88.0923 24.8097 88.2514 24.8494V28.071C88.081 28.0199 87.8452 27.9744 87.544 27.9347C87.2429 27.8949 86.9673 27.875 86.7173 27.875C86.1832 27.875 85.706 27.9915 85.2855 28.2244C84.8707 28.4517 84.5412 28.7699 84.2969 29.179C84.0582 29.5881 83.9389 30.0597 83.9389 30.5938V38H80.3082ZM101.021 28.642L97.6967 28.8466C97.6399 28.5625 97.5178 28.3068 97.3303 28.0795C97.1428 27.8466 96.8956 27.6619 96.5888 27.5256C96.2876 27.3835 95.9268 27.3125 95.5064 27.3125C94.9439 27.3125 94.4695 27.4318 94.0831 27.6705C93.6967 27.9034 93.5036 28.2159 93.5036 28.608C93.5036 28.9205 93.6286 29.1847 93.8786 29.4006C94.1286 29.6165 94.5575 29.7898 95.1655 29.9205L97.5348 30.3977C98.8075 30.6591 99.7564 31.0795 100.381 31.6591C101.006 32.2386 101.319 33 101.319 33.9432C101.319 34.8011 101.066 35.554 100.56 36.2017C100.06 36.8494 99.3729 37.3551 98.4979 37.7188C97.6286 38.0767 96.6257 38.2557 95.4893 38.2557C93.7564 38.2557 92.3757 37.8949 91.3473 37.1733C90.3246 36.446 89.7251 35.4574 89.549 34.2074L93.12 34.0199C93.228 34.5483 93.4893 34.9517 93.9041 35.2301C94.3189 35.5028 94.8501 35.6392 95.4979 35.6392C96.1342 35.6392 96.6456 35.517 97.032 35.2727C97.424 35.0227 97.6229 34.7017 97.6286 34.3097C97.6229 33.9801 97.4837 33.7102 97.2109 33.5C96.9382 33.2841 96.5178 33.1193 95.9496 33.0057L93.6825 32.554C92.4041 32.2983 91.4524 31.8551 90.8274 31.2244C90.2081 30.5937 89.8984 29.7898 89.8984 28.8125C89.8984 27.9716 90.1257 27.2472 90.5803 26.6392C91.0405 26.0312 91.6854 25.5625 92.5149 25.233C93.3501 24.9034 94.3274 24.7386 95.4467 24.7386C97.1001 24.7386 98.4013 25.0881 99.3501 25.7869C100.305 26.4858 100.862 27.4375 101.021 28.642ZM109.52 38.2557C108.196 38.2557 107.051 37.9744 106.085 37.4119C105.125 36.8437 104.384 36.054 103.861 35.0426C103.338 34.0256 103.077 32.8466 103.077 31.5057C103.077 30.1534 103.338 28.9716 103.861 27.9602C104.384 26.9432 105.125 26.1534 106.085 25.5909C107.051 25.0227 108.196 24.7386 109.52 24.7386C110.844 24.7386 111.986 25.0227 112.946 25.5909C113.912 26.1534 114.656 26.9432 115.179 27.9602C115.702 28.9716 115.963 30.1534 115.963 31.5057C115.963 32.8466 115.702 34.0256 115.179 35.0426C114.656 36.054 113.912 36.8437 112.946 37.4119C111.986 37.9744 110.844 38.2557 109.52 38.2557ZM109.537 35.4432C110.139 35.4432 110.642 35.2727 111.045 34.9318C111.449 34.5852 111.753 34.1136 111.957 33.517C112.168 32.9205 112.273 32.2415 112.273 31.4801C112.273 30.7188 112.168 30.0398 111.957 29.4432C111.753 28.8466 111.449 28.375 111.045 28.0284C110.642 27.6818 110.139 27.5085 109.537 27.5085C108.929 27.5085 108.418 27.6818 108.003 28.0284C107.594 28.375 107.284 28.8466 107.074 29.4432C106.869 30.0398 106.767 30.7188 106.767 31.4801C106.767 32.2415 106.869 32.9205 107.074 33.517C107.284 34.1136 107.594 34.5852 108.003 34.9318C108.418 35.2727 108.929 35.4432 109.537 35.4432ZM129.216 28.642L125.892 28.8466C125.835 28.5625 125.713 28.3068 125.526 28.0795C125.338 27.8466 125.091 27.6619 124.784 27.5256C124.483 27.3835 124.122 27.3125 123.702 27.3125C123.139 27.3125 122.665 27.4318 122.278 27.6705C121.892 27.9034 121.699 28.2159 121.699 28.608C121.699 28.9205 121.824 29.1847 122.074 29.4006C122.324 29.6165 122.753 29.7898 123.361 29.9205L125.73 30.3977C127.003 30.6591 127.952 31.0795 128.577 31.6591C129.202 32.2386 129.514 33 129.514 33.9432C129.514 34.8011 129.261 35.554 128.756 36.2017C128.256 36.8494 127.568 37.3551 126.693 37.7188C125.824 38.0767 124.821 38.2557 123.685 38.2557C121.952 38.2557 120.571 37.8949 119.543 37.1733C118.52 36.446 117.92 35.4574 117.744 34.2074L121.315 34.0199C121.423 34.5483 121.685 34.9517 122.099 35.2301C122.514 35.5028 123.045 35.6392 123.693 35.6392C124.33 35.6392 124.841 35.517 125.227 35.2727C125.619 35.0227 125.818 34.7017 125.824 34.3097C125.818 33.9801 125.679 33.7102 125.406 33.5C125.134 33.2841 124.713 33.1193 124.145 33.0057L121.878 32.554C120.599 32.2983 119.648 31.8551 119.023 31.2244C118.403 30.5937 118.094 29.7898 118.094 28.8125C118.094 27.9716 118.321 27.2472 118.776 26.6392C119.236 26.0312 119.881 25.5625 120.71 25.233C121.545 24.9034 122.523 24.7386 123.642 24.7386C125.295 24.7386 126.597 25.0881 127.545 25.7869C128.5 26.4858 129.057 27.4375 129.216 28.642Z" fill="white"/>
<ellipse cx="23" cy="29.5" rx="22" ry="22.5" fill="white"/>
<path d="M7.60121 18.1818L12.4805 34.1619H12.6616L17.5408 18.1818H23.4428L16.0813 40H9.06072L1.69922 18.1818H7.60121ZM25.7919 40V18.1818H34.8047C36.4382 18.1818 37.848 18.4766 39.0341 19.0661C40.2273 19.6484 41.147 20.4865 41.7933 21.5803C42.4396 22.6669 42.7628 23.956 42.7628 25.4474C42.7628 26.9602 42.4325 28.2457 41.772 29.304C41.1115 30.3551 40.174 31.1577 38.9595 31.7116C37.745 32.2585 36.3068 32.532 34.6449 32.532H28.9453V28.3771H33.6648C34.4602 28.3771 35.1243 28.2741 35.657 28.0682C36.1967 27.8551 36.6051 27.5355 36.8821 27.1094C37.1591 26.6761 37.2976 26.1222 37.2976 25.4474C37.2976 24.7727 37.1591 24.2152 36.8821 23.7749C36.6051 23.3274 36.1967 22.9936 35.657 22.7734C35.1172 22.5462 34.4531 22.4325 33.6648 22.4325H31.0653V40H25.7919ZM38.0753 30.0284L43.5085 40H37.7557L32.429 30.0284H38.0753Z" fill="#3C2E67"/>
</svg>
